<svg width="640" height="960" viewBox="0 0 640 960" fill="none" xmlns="http://www.w3.org/2000/svg">
  <rect width="640" height="960" fill="#E8DDD3"/>
  <rect y="602" width="640" height="358" fill="#2B1C15"/>
  <path d="M231 167H409L441 303L389 855H297L278 541H362L348 855H248L199 303L231 167Z" fill="url(#jean)"/>
  <path d="M311 167H329L348 855H297L311 167Z" fill="#5A79C8"/>
  <path d="M209 296H431" stroke="#A8C0FF" stroke-width="10" stroke-linecap="round"/>
  <path d="M242 170H398L384 122H256L242 170Z" fill="#7E5B4D"/>
  <rect x="397" y="217" width="30" height="24" rx="4" fill="#C2463B"/>
  <path d="M195 334L103 250" stroke="#704B3F" stroke-width="30" stroke-linecap="round"/>
  <path d="M445 334L537 250" stroke="#704B3F" stroke-width="30" stroke-linecap="round"/>
  <defs>
    <linearGradient id="jean" x1="320" y1="167" x2="320" y2="855" gradientUnits="userSpaceOnUse">
      <stop stop-color="#7296EA"/>
      <stop offset="1" stop-color="#3658B3"/>
    </linearGradient>
  </defs>
</svg>
